<?xml version="1.0" encoding="UTF-8"?>
<svg version="1.1" xmlns="http://www.w3.org/2000/svg" width="216" height="233">
<path d="M0 0 C2.22321323 -0.0096139 4.44546414 -0.04061456 6.66845703 -0.07226562 C22.36865144 -0.19130642 36.87002228 2.92523994 48.69580078 14.05273438 C63.83922646 30.59891948 65.14404972 50.90398442 64.25830078 72.24023438 C63.27975769 85.95361989 58.47035519 97.90971861 49.25830078 108.24023438 C48.59830078 108.24023438 47.93830078 108.24023438 47.25830078 108.24023438 C47.25830078 108.90023437 47.25830078 109.56023437 47.25830078 110.24023438 C31.05261528 122.74880532 10.94748681 125.14972929 -8.95361328 123.00146484 C-24.33441883 120.90156629 -39.01392203 114.89207818 -48.74169922 102.24023438 C-50.332752 99.72100819 -51.74709623 97.13556764 -53.11669922 94.49023438 C-53.45064697 93.85939941 -53.78459473 93.22856445 -54.12866211 92.57861328 C-58.95555928 82.67149065 -59.10735212 71.68608577 -59.05419922 60.86523438 C-59.04928467 59.68002197 -59.04437012 58.49480957 -59.03930664 57.27368164 C-58.8139972 40.45866502 -55.07369533 26.00485101 -43.15576172 13.58789062 C-35.96144472 6.95087987 -27.08150374 3.66530643 -17.74169922 1.24023438 C-17.18401855 1.0675 -16.62633789 0.89476562 -16.05175781 0.71679688 C-10.82340178 -0.36180712 -5.32622402 0.01389752 0 0 Z " fill="#6B76EE" transform="translate(104.74169921875,45.759765625)"/>
<path d="M0 0 C0.97710937 -0.02900391 1.95421875 -0.05800781 2.9609375 -0.08789062 C9.29233348 -0.14335434 13.17534168 0.41351514 18.25 4.3125 C21.43180286 8.43273628 21.6787268 12.09819294 21.61328125 17.1328125 C21.61402901 18.24352615 21.61402901 18.24352615 21.61479187 19.37667847 C21.61246015 20.93490293 21.60278501 22.49313179 21.58618164 24.05126953 C21.5625063 26.43686495 21.56563736 28.8213475 21.57226562 31.20703125 C21.56669094 32.72396499 21.55958238 34.24089404 21.55078125 35.7578125 C21.55214836 36.82662155 21.55214836 36.82662155 21.55354309 37.91702271 C21.50076901 41.59515002 21.34596231 43.16855653 19.25 46.3125 C15.625 46.5 15.625 46.5 12.25 46.3125 C12.25 48.6225 12.25 50.9325 12.25 53.3125 C11.26 52.9825 10.27 52.6525 9.25 52.3125 C9.25 41.7525 9.25 31.1925 9.25 20.3125 C9.91 20.3125 10.57 20.3125 11.25 20.3125 C11.745 32.1925 11.745 32.1925 12.25 44.3125 C15.22 43.8175 15.22 43.8175 18.25 43.3125 C18.32449251 38.86510587 18.37876257 34.4180481 18.41479492 29.97021484 C18.42982543 28.45908273 18.45025564 26.94799382 18.47631836 25.43701172 C18.51295689 23.25737813 18.52978338 21.07832425 18.54296875 18.8984375 C18.56653442 16.93463135 18.56653442 16.93463135 18.59057617 14.93115234 C18.22346267 11.03053852 17.28627032 8.63483579 15.25 5.3125 C13.50298762 4.00400637 13.50298762 4.00400637 11.5625 3.4375 C10.469375 3.06625 9.37625 2.695 8.25 2.3125 C8.58 3.3025 8.91 4.2925 9.25 5.3125 C9.91 5.6425 10.57 5.9725 11.25 6.3125 C11.25 7.9625 11.25 9.6125 11.25 11.3125 C9.6 11.6425 7.95 11.9725 6.25 12.3125 C5.21404478 8.28378525 5.38011146 6.66194269 6.25 2.3125 C2.29 2.3125 -1.67 2.3125 -5.75 2.3125 C-5.255 3.3025 -4.76 4.2925 -4.25 5.3125 C-2.45077619 9.47957023 -2.44448194 12.80610861 -2.75 17.3125 C-3.08 17.9725 -3.41 18.6325 -3.75 19.3125 C-5.6875 19 -5.6875 19 -7.75 18.3125 C-8.08 17.3225 -8.41 16.3325 -8.75 15.3125 C-7.43 14.6525 -6.11 13.9925 -4.75 13.3125 C-5.41 11.9925 -6.07 10.6725 -6.75 9.3125 C-8.07 9.6425 -9.39 9.9725 -10.75 10.3125 C-10.564375 11.281875 -10.37875 12.25125 -10.1875 13.25 C-10.043125 14.260625 -9.89875 15.27125 -9.75 16.3125 C-10.75 17.3125 -10.75 17.3125 -13.3125 17.375 C-14.116875 17.354375 -14.92125 17.33375 -15.75 17.3125 C-15.32405412 15.87153414 -14.88373367 14.43481288 -14.4375 13 C-14.19386719 12.19949219 -13.95023437 11.39898437 -13.69921875 10.57421875 C-12.69645651 8.18492107 -11.76940718 6.91660493 -9.75 5.3125 C-9.09 5.3125 -8.43 5.3125 -7.75 5.3125 C-7.75 4.3225 -7.75 3.3325 -7.75 2.3125 C-9.21673385 2.85271679 -10.67326617 3.42068035 -12.125 4 C-12.93710938 4.31324219 -13.74921875 4.62648438 -14.5859375 4.94921875 C-17.46245585 6.76132146 -17.76420869 8.07190319 -18.75 11.3125 C-19.02462934 14.89472502 -19.02462934 14.89472502 -18.9453125 18.80078125 C-18.94106766 19.8555793 -18.94106766 19.8555793 -18.93673706 20.9316864 C-18.92560151 23.16296892 -18.90050997 25.39384017 -18.875 27.625 C-18.8649616 29.14387438 -18.85583726 30.6627551 -18.84765625 32.18164062 C-18.82568413 35.89205921 -18.79120047 39.60223942 -18.75 43.3125 C-17.1 43.3125 -15.45 43.3125 -13.75 43.3125 C-13.42 35.7225 -13.09 28.1325 -12.75 20.3125 C-12.09 20.3125 -11.43 20.3125 -10.75 20.3125 C-10.75 30.8725 -10.75 41.4325 -10.75 52.3125 C-11.41 52.3125 -12.07 52.3125 -12.75 52.3125 C-13.08 50.6625 -13.41 49.0125 -13.75 47.3125 C-14.69875 47.209375 -15.6475 47.10625 -16.625 47 C-19.75 46.3125 -19.75 46.3125 -21.75 43.3125 C-22.13958441 38.79782272 -22.07910551 34.27335747 -22.06567383 29.74389648 C-22.06252576 27.51821385 -22.0859345 25.29387655 -22.11132812 23.06835938 C-22.11360256 21.64323083 -22.11430394 20.21809874 -22.11328125 18.79296875 C-22.11626221 17.50285889 -22.11924316 16.21274902 -22.12231445 14.88354492 C-21.58692569 9.74837677 -20.03089931 6.49733186 -16.25 3 C-11.1253295 -0.45915259 -5.96727582 0.05812282 0 0 Z " fill="#E1E5FB" transform="translate(108.75,92.6875)"/>
<path d="M0 0 C3.31248187 -0.02888146 6.62493167 -0.04675799 9.9375 -0.0625 C10.88302734 -0.07087891 11.82855469 -0.07925781 12.80273438 -0.08789062 C14.15141602 -0.09272461 14.15141602 -0.09272461 15.52734375 -0.09765625 C16.77632446 -0.10551147 16.77632446 -0.10551147 18.05053711 -0.11352539 C20 0 20 0 21 1 C21.15327614 3.22545162 21.22203074 5.45695159 21.25 7.6875 C21.27578125 8.90824219 21.3015625 10.12898438 21.328125 11.38671875 C20.97088834 15.32057478 20.08784593 17.66822717 18 21 C13.98141405 23.6790573 10.72358279 23.69610694 6 23 C3.12970131 21.20606332 1.50868362 20.01736724 0 17 C-0.07194869 14.11629667 -0.09291708 11.25760336 -0.0625 8.375 C-0.05798828 7.57320313 -0.05347656 6.77140625 -0.04882812 5.9453125 C-0.03703168 3.96350994 -0.01909605 1.98174567 0 0 Z " fill="#E5F1FE" transform="translate(98,68)"/>
<path d="M0 0 C0 0.99 0 1.98 0 3 C-0.763125 3.7425 -1.52625 4.485 -2.3125 5.25 C-5.429535 8.43952418 -6.46165121 10.87074797 -8 15 C-6.35 14.67 -4.7 14.34 -3 14 C-3.226875 13.071875 -3.45375 12.14375 -3.6875 11.1875 C-4 8 -4 8 -2.5625 6.125 C-2.046875 5.75375 -1.53125 5.3825 -1 5 C-1 5.66 -1 6.32 -1 7 C-0.01 6.67 0.98 6.34 2 6 C2.6875 8.3125 2.6875 8.3125 3 11 C1.5625 12.8125 1.5625 12.8125 0 14 C0.33 14.66 0.66 15.32 1 16 C1.99 16.33 2.98 16.66 4 17 C4.33 14.03 4.66 11.06 5 8 C5.33 8 5.66 8 6 8 C6.125 15.75 6.125 15.75 5 18 C1.7 18 -1.6 18 -5 18 C-4.98839844 19.64871094 -4.97679688 21.29742187 -4.96484375 22.99609375 C-4.95546762 25.14322804 -4.94636723 27.29036355 -4.9375 29.4375 C-4.92912109 30.52611328 -4.92074219 31.61472656 -4.91210938 32.73632812 C-4.90888672 33.77080078 -4.90566406 34.80527344 -4.90234375 35.87109375 C-4.89710693 36.82943115 -4.89187012 37.78776855 -4.88647461 38.77514648 C-5 41 -5 41 -6 42 C-8.5 42.125 -8.5 42.125 -11 42 C-13.69470438 39.30529562 -12.23010005 31.47005414 -12.24023438 27.58227539 C-12.24988611 25.33897054 -12.28086893 23.09660307 -12.3125 20.85351562 C-12.31903544 19.41927627 -12.32428379 17.98503035 -12.328125 16.55078125 C-12.3374707 15.24794189 -12.34681641 13.94510254 -12.35644531 12.6027832 C-11.96970481 8.69379029 -11.08580694 6.30985914 -9 3 C-5.74533864 0.96583665 -3.8455896 0 0 0 Z " fill="#717BE4" transform="translate(101,95)"/>
<path d="M0 0 C1.98 0 3.96 0 6 0 C6.2475 0.78375 6.495 1.5675 6.75 2.375 C8.15389099 5.32317108 9.00675737 5.9024777 12 7 C12 6.34 12 5.68 12 5 C12.99 5 13.98 5 15 5 C15 7.31 15 9.62 15 12 C19.02499936 12.90887082 23.00399966 13.30163573 27.109375 13.62109375 C27.73328125 13.74613281 28.3571875 13.87117187 29 14 C29.33 14.66 29.66 15.32 30 16 C30.33 15.01 30.66 14.02 31 13 C31 13.66 31 14.32 31 15 C32.11375 14.7215625 32.11375 14.7215625 33.25 14.4375 C35.94990963 14.00796892 37.44631077 14.14877026 40 15 C40 15.99 40 16.98 40 18 C40.66 18 41.32 18 42 18 C42 18.66 42 19.32 42 20 C49.26 20 56.52 20 64 20 C64 18.35 64 16.7 64 15 C69.22954191 13.18566913 72.44825858 13.03912168 78 14 C78.99 13.67 79.98 13.34 81 13 C83.33299825 12.96045766 85.66708189 12.95598268 88 13 C80.71590455 21.09087817 68.00895652 21.53797939 57.82470703 22.12548828 C38.71505647 22.95925729 20.29768182 20.17039432 5.65625 6.87109375 C3.71131281 4.95697423 1.79805482 3.05282008 0 1 C0 0.67 0 0.34 0 0 Z " fill="#795BD5" transform="translate(56,147)"/>
<path d="M0 0 C4.47994839 -0.07512813 8.95954625 -0.12905469 13.43994141 -0.16479492 C14.95856121 -0.17972112 16.47713917 -0.20006959 17.99560547 -0.22631836 C34.58560139 -0.50555591 49.82880207 1.94831566 62.4375 13.8125 C68.16951208 20.05241188 74.63276263 29.2466146 75.1875 37.9375 C75.0946875 38.9584375 75.0946875 38.9584375 75 40 C74.67 39.01 74.34 38.02 74 37 C72.68 37.33 71.36 37.66 70 38 C70.226875 37.319375 70.45375 36.63875 70.6875 35.9375 C71.12326143 31.84134254 70.03797068 29.53248251 68 26 C65.42267086 24.94832473 65.42267086 24.94832473 63 25 C63 23.35 63 21.7 63 20 C62.34 20 61.68 20 61 20 C61 19.34 61 18.68 61 18 C58.36 18 55.72 18 53 18 C53.66 16.68 54.32 15.36 55 14 C54.34 13.67 53.68 13.34 53 13 C53.66 12.67 54.32 12.34 55 12 C54.505 10.515 54.505 10.515 54 9 C52.1746875 9.2784375 52.1746875 9.2784375 50.3125 9.5625 C46.93872544 9.99091582 44.32016258 9.83004064 41 9 C39.68 9 38.36 9 37 9 C37 7.02 37 5.04 37 3 C29.35896499 1.84020004 21.71701718 1.66802794 14 1.4375 C12.63931211 1.39421865 11.27863485 1.35060161 9.91796875 1.30664062 C6.61206843 1.20113317 3.30610001 1.09901744 0 1 C0 0.67 0 0.34 0 0 Z " fill="#6E8EE8" transform="translate(91,46)"/>
<path d="M0 0 C2.89333527 2.89333527 2.27056887 5.04553781 2.30859375 9.08984375 C2.33375198 10.52799888 2.35915003 11.96614982 2.38476562 13.40429688 C2.41352592 15.67341041 2.43754093 17.94245142 2.45629883 20.21166992 C2.47793854 22.40060985 2.51737327 24.5886979 2.55859375 26.77734375 C2.57204834 28.08952881 2.58550293 29.40171387 2.59936523 30.75366211 C2.73544291 33.94540442 2.73544291 33.94540442 4.35961914 35.93969727 C6.62114785 37.40149503 8.36717584 37.21347223 11 37 C11.12375 37.969375 11.2475 38.93875 11.375 39.9375 C11.58125 40.948125 11.7875 41.95875 12 43 C12.66 43.33 13.32 43.66 14 44 C14 33.44 14 22.88 14 12 C16 15 16 15 16 17 C16.99 17.33 17.98 17.66 19 18 C18.34 18.33 17.68 18.66 17 19 C16.45420185 21.24998444 16.45420185 21.24998444 16.25 23.875 C16.15203125 24.75929688 16.0540625 25.64359375 15.953125 26.5546875 C15.78540646 29.2616487 15.78540646 29.2616487 18 32 C17.67 32.99 17.34 33.98 17 35 C17 38.196569 17.99334899 40.98004696 19 44 C18.67 44.99 18.34 45.98 18 47 C15.03 47.495 15.03 47.495 12 48 C11.01 46.02 10.02 44.04 9 42 C8.236875 42.04125 7.47375 42.0825 6.6875 42.125 C4 42 4 42 1 40 C1 38.68 1 37.36 1 36 C0.34 36 -0.32 36 -1 36 C-3.31129802 30.3501604 -2.74852193 26.46992413 -1.58203125 20.5546875 C-0.46985681 13.76221276 -0.30924856 6.86857325 0 0 Z " fill="#6D63DB" transform="translate(85,102)"/>
<path d="M0 0 C0.33 0 0.66 0 1 0 C1.02471455 4.9296024 1.04286691 9.85916874 1.05493164 14.78881836 C1.05996113 16.46590808 1.06678548 18.14299342 1.07543945 19.82006836 C1.08756559 22.230317 1.09324215 24.64050768 1.09765625 27.05078125 C1.10281754 27.80087967 1.10797882 28.55097809 1.11329651 29.32380676 C1.11363785 32.48951232 1.00887343 34.97337972 0 38 C-2.64 38.33 -5.28 38.66 -8 39 C-7.65772428 41.97065509 -7.65772428 41.97065509 -7 45 C-6.34 45.33 -5.68 45.66 -5 46 C-8.0684847 48.97550031 -9.46236331 49.96474513 -13.8125 50.25 C-14.864375 50.1675 -15.91625 50.085 -17 50 C-17.33 47.36 -17.66 44.72 -18 42 C-16.68 42 -15.36 42 -14 42 C-13.67 33.75 -13.34 25.5 -13 17 C-12.67 17 -12.34 17 -12 17 C-11.67 25.58 -11.34 34.16 -11 43 C-10.34 43.33 -9.68 43.66 -9 44 C-9 41.69 -9 39.38 -9 37 C-7.865625 36.87625 -6.73125 36.7525 -5.5625 36.625 C-4.386875 36.41875 -3.21125 36.2125 -2 36 C-0.4725361 32.9450722 -0.76008168 29.7236686 -0.68359375 26.3671875 C-0.66281265 25.61535187 -0.64203156 24.86351624 -0.62062073 24.08889771 C-0.55517295 21.68435915 -0.49626262 19.27971033 -0.4375 16.875 C-0.39431023 15.24608229 -0.35069579 13.61717578 -0.30664062 11.98828125 C-0.19949649 7.99230085 -0.09821567 3.99620941 0 0 Z " fill="#6E62D8" transform="translate(130,102)"/>
<path d="M0 0 C0.99 1.485 0.99 1.485 2 3 C2.66 2.01 3.32 1.02 4 0 C4.66 0.33 5.32 0.66 6 1 C6 8.92 6 16.84 6 25 C4.02 25 2.04 25 0 25 C0 16.75 0 8.5 0 0 Z " fill="#6D6AE2" transform="translate(121,112)"/>
<path d="M0 0 C5.61 0 11.22 0 17 0 C17 2.64 17 5.28 17 8 C11.39 8 5.78 8 0 8 C0 5.36 0 2.72 0 0 Z " fill="#6689F4" transform="translate(100,70)"/>
<path d="M0 0 C5.61 0 11.22 0 17 0 C15.71428571 6.42857143 15.71428571 6.42857143 12 9 C9.22042363 9.56504735 6.77961922 9.56389816 4 9 C1.5 7.3125 1.5 7.3125 0 5 C0 3.35 0 1.7 0 0 Z " fill="#778CE4" transform="translate(100,80)"/>
<path d="M0 0 C0.66 0 1.32 0 2 0 C2 0.99 2 1.98 2 3 C3.32 3 4.64 3 6 3 C5.67 3.66 5.34 4.32 5 5 C4.87310404 6.35070126 4.79829657 7.70657744 4.75390625 9.0625 C4.72103516 9.85914062 4.68816406 10.65578125 4.65429688 11.4765625 C4.59310396 13.15871678 4.53581137 14.84101747 4.48242188 16.5234375 C4.44826172 17.32007812 4.41410156 18.11671875 4.37890625 18.9375 C4.3538501 19.66839844 4.32879395 20.39929688 4.30297852 21.15234375 C4 23 4 23 2 25 C1.3574765 27.06874034 1.3574765 27.06874034 1 29 C-1.1362154 25.7956769 -1.24863476 24.96857042 -1.23046875 21.2890625 C-1.22853516 20.37382813 -1.22660156 19.45859375 -1.22460938 18.515625 C-1.21236328 17.56171875 -1.20011719 16.6078125 -1.1875 15.625 C-1.18685547 14.67882812 -1.18621094 13.73265625 -1.18554688 12.7578125 C-1.15768129 8.34885794 -0.96549552 4.31752263 0 0 Z " fill="#6D6EE9" transform="translate(91,107)"/>
<path d="M0 0 C7.59 0 15.18 0 23 0 C24.26188141 15.93125279 24.26188141 15.93125279 20.77734375 21.28125 C19.68339155 23.1819554 19.68339155 23.1819554 21 26 C20.41508789 26.02505615 19.83017578 26.0501123 19.22753906 26.07592773 C16.56815529 26.19222962 13.90909597 26.31480067 11.25 26.4375 C10.32960938 26.47681641 9.40921875 26.51613281 8.4609375 26.55664062 C7.57148437 26.59853516 6.68203125 26.64042969 5.765625 26.68359375 C4.54020996 26.73858032 4.54020996 26.73858032 3.29003906 26.79467773 C1.0965577 26.99134275 -0.88396413 27.40300594 -3 28 C-3.33 27.34 -3.66 26.68 -4 26 C-1.69 25.34 0.62 24.68 3 24 C2.34 23.67 1.68 23.34 1 23 C1 21.35 1 19.7 1 18 C1.804375 18.825 2.60875 19.65 3.4375 20.5 C6.83303191 23.33095416 9.60094594 23.67835495 13.9453125 23.4296875 C16.97212985 22.79670288 18.2764049 21.51357619 20 19 C21.18681726 15.43954823 21.09689832 12.56191663 21.0625 8.8125 C21.041875 6.564375 21.02125 4.31625 21 2 C14.07 2 7.14 2 0 2 C0 1.34 0 0.68 0 0 Z " fill="#7389D8" transform="translate(97,67)"/>
<path d="M0 0 C0.33 0.66 0.66 1.32 1 2 C1.99 1.67 2.98 1.34 4 1 C4.6875 3.3125 4.6875 3.3125 5 6 C3.5625 7.8125 3.5625 7.8125 2 9 C2.33 9.66 2.66 10.32 3 11 C3.99 11.33 4.98 11.66 6 12 C6.33 9.03 6.66 6.06 7 3 C7.33 3 7.66 3 8 3 C8.125 10.75 8.125 10.75 7 13 C3.7 13 0.4 13 -3 13 C-3 20.59 -3 28.18 -3 36 C-5.475 36.495 -5.475 36.495 -8 37 C-7.01 36.505 -7.01 36.505 -6 36 C-6.33 34.35 -6.66 32.7 -7 31 C-6.01 30.67 -5.02 30.34 -4 30 C-4.01571045 29.43490723 -4.0314209 28.86981445 -4.04760742 28.28759766 C-4.10987045 25.73349977 -4.14896136 23.17956129 -4.1875 20.625 C-4.21263672 19.73554687 -4.23777344 18.84609375 -4.26367188 17.9296875 C-4.27333984 17.07890625 -4.28300781 16.228125 -4.29296875 15.3515625 C-4.3086792 14.56604004 -4.32438965 13.78051758 -4.34057617 12.97119141 C-4.17199097 11.99545166 -4.17199097 11.99545166 -4 11 C-3.01 10.34 -2.02 9.68 -1 9 C-1.20625 8.071875 -1.4125 7.14375 -1.625 6.1875 C-2 3 -2 3 0 0 Z " fill="#747ED6" transform="translate(99,100)"/>
<path d="M0 0 C1.98 0 3.96 0 6 0 C6.2475 0.78375 6.495 1.5675 6.75 2.375 C8.15389099 5.32317108 9.00675737 5.9024777 12 7 C12 6.34 12 5.68 12 5 C12.99 5 13.98 5 15 5 C15 7.31 15 9.62 15 12 C19.82549132 14.05807704 24.81022048 15.56575105 29.8125 17.125 C30.69615234 17.40214844 31.57980469 17.67929688 32.49023438 17.96484375 C34.65961653 18.64497437 36.82954446 19.32330423 39 20 C31.33203315 22.1911394 22.42398496 18.33787823 15.59765625 14.73046875 C10.22081445 11.14860271 2.91788091 5.83576183 0 0 Z " fill="#7C66D4" transform="translate(56,147)"/>
<path d="M0 0 C2 2 2 2 2.22705078 5.16455078 C2.22673389 6.50817963 2.21542181 7.8518341 2.1953125 9.1953125 C2.1924826 9.90275604 2.18965271 10.61019958 2.18673706 11.33908081 C2.17553137 13.6012251 2.15042679 15.86297515 2.125 18.125 C2.11497067 19.65754637 2.10584474 21.19009894 2.09765625 22.72265625 C2.07559086 26.48192301 2.04105896 30.24089464 2 34 C1.01 34 0.02 34 -1 34 C-3.5091198 30.2363203 -2.97024705 29.22808362 -2.1875 24.875 C-0.84609655 16.60156968 -0.38484824 8.36538533 0 0 Z " fill="#6B6BDB" transform="translate(85,102)"/>
<path d="M0 0 C0.66 0 1.32 0 2 0 C2.33 7.92 2.66 15.84 3 24 C4.98 24 6.96 24 9 24 C9.33 24.66 9.66 25.32 10 26 C7.69 26 5.38 26 3 26 C3 28.31 3 30.62 3 33 C2.01 32.67 1.02 32.34 0 32 C0 21.44 0 10.88 0 0 Z " fill="#D3D2F8" transform="translate(118,113)"/>
<path d="M0 0 C0.33 0 0.66 0 1 0 C1.33 4.29 1.66 8.58 2 13 C2 12.34 2 11.68 2 11 C2.99 10.67 3.98 10.34 5 10 C5.66 10.33 6.32 10.66 7 11 C6.979375 11.94875 6.95875 12.8975 6.9375 13.875 C6.77448174 16.90666283 6.77448174 16.90666283 8 19 C7.34 19 6.68 19 6 19 C6.350625 19.78375 6.70125 20.5675 7.0625 21.375 C7.371875 22.24125 7.68125 23.1075 8 24 C7.67 24.66 7.34 25.32 7 26 C7.99 26.33 8.98 26.66 10 27 C8.68 27 7.36 27 6 27 C-2.84813848 9.73665947 -2.84813848 9.73665947 0 0 Z " fill="#6E65DA" transform="translate(48,118)"/>
<path d="M0 0 C3.0625 0.125 3.0625 0.125 5.0625 1.125 C5.0625 1.785 5.0625 2.445 5.0625 3.125 C4.4025 3.125 3.7425 3.125 3.0625 3.125 C3.0625 4.775 3.0625 6.425 3.0625 8.125 C1.0825 9.115 1.0825 9.115 -0.9375 10.125 C-0.9375 10.785 -0.9375 11.445 -0.9375 12.125 C-3.4989657 14.42148649 -4.41717572 15.125 -7.9375 15.125 C-8.625 13.3125 -8.625 13.3125 -8.9375 11.125 C-7.8125 9.375 -7.8125 9.375 -5.9375 8.125 C-3.25 7.9375 -3.25 7.9375 -0.9375 8.125 C-1.51202746 4.19424356 -1.51202746 4.19424356 -3.9375 1.125 C-2.9375 0.125 -2.9375 0.125 0 0 Z " fill="#6B56E1" transform="translate(152.9375,143.875)"/>
<path d="M0 0 C1.4800841 0.11362262 2.95910074 0.24122908 4.4375 0.375 C5.26121094 0.44460937 6.08492188 0.51421875 6.93359375 0.5859375 C7.95646484 0.79089844 7.95646484 0.79089844 9 1 C9.33 1.66 9.66 2.32 10 3 C10.33 2.01 10.66 1.02 11 0 C11 0.66 11 1.32 11 2 C11.7425 1.814375 12.485 1.62875 13.25 1.4375 C15.94990963 1.00796892 17.44631077 1.14877026 20 2 C20 2.99 20 3.98 20 5 C20.66 5 21.32 5 22 5 C22.33 6.32 22.66 7.64 23 9 C15.41 6.69 7.82 4.38 0 2 C0 1.34 0 0.68 0 0 Z " fill="#7153E3" transform="translate(76,160)"/>
<path d="M0 0 C0.99 0.33 1.98 0.66 3 1 C3.33 2.98 3.66 4.96 4 7 C3.071875 7.12375 3.071875 7.12375 2.125 7.25 C-0.09684182 7.80083474 -0.09684182 7.80083474 -1.125 9.625 C-2.09962453 12.15918451 -2.09962453 12.15918451 -2.9375 15.5 C-3.93048259 18.77100148 -4.90835829 20.40112092 -7 23 C-7.76144025 11.44302909 -7.76144025 11.44302909 -5.95703125 8.0234375 C-4.625 6.6875 -4.625 6.6875 -2 5 C-1.34 5 -0.68 5 0 5 C-0.2784375 4.0409375 -0.2784375 4.0409375 -0.5625 3.0625 C-0.706875 2.381875 -0.85125 1.70125 -1 1 C-0.67 0.67 -0.34 0.34 0 0 Z " fill="#6889F5" transform="translate(59,64)"/>
<path d="M0 0 C0.66 0.33 1.32 0.66 2 1 C-0.83430453 4.2542015 -2.68607774 5.5206753 -7 6 C-7 6.66 -7 7.32 -7 8 C-7.61875 8.061875 -8.2375 8.12375 -8.875 8.1875 C-9.57625 8.455625 -10.2775 8.72375 -11 9 C-11.70211894 10.65204456 -12.36971413 12.31923769 -13 14 C-13.99 14.33 -14.98 14.66 -16 15 C-16 15.99 -16 16.98 -16 18 C-17.82193842 19.9249647 -19.89235283 21.37535531 -22 23 C-22 17.42497681 -17.82024925 12.92137421 -14.1015625 8.99609375 C-9.76773132 5.03055257 -5.43056431 2.24713006 0 0 Z " fill="#718ADE" transform="translate(75,51)"/>
<path d="M0 0 C-0.33 2.31 -0.66 4.62 -1 7 C-4.96 7 -8.92 7 -13 7 C-11.6875 4.0625 -11.6875 4.0625 -10 1 C-6.52674819 -0.1577506 -3.63932552 -0.06866652 0 0 Z " fill="#6E95F2" transform="translate(87,49)"/>
<path d="M0 0 C0.33 0 0.66 0 1 0 C2.65538713 7.31129316 0.9120062 12.2011529 -2 19 C-4.69675209 14.95487187 -4.55024521 11.74991088 -4 7 C-1.90909091 1.90909091 -1.90909091 1.90909091 0 0 Z " fill="#6C67E7" transform="translate(164,121)"/>
<path d="M0 0 C3.63 0.33 7.26 0.66 11 1 C10.67 2.65 10.34 4.3 10 6 C7.69 6.33 5.38 6.66 3 7 C2.67 5.68 2.34 4.36 2 3 C1.01 3.33 0.02 3.66 -1 4 C-1.33 3.34 -1.66 2.68 -2 2 C-1.34 2 -0.68 2 0 2 C0 1.34 0 0.68 0 0 Z " fill="#6C82EF" transform="translate(104,82)"/>
<path d="M0 0 C3.17239897 2.88091787 4.99644695 5.53530325 6.75 9.4375 C7.39195312 10.82775391 7.39195312 10.82775391 8.046875 12.24609375 C9.01106601 15.03197351 9.19087637 17.07853116 9 20 C8.67 19.01 8.34 18.02 8 17 C6.68 17.33 5.36 17.66 4 18 C4.226875 17.319375 4.45375 16.63875 4.6875 15.9375 C5.12290176 11.84472345 3.79836785 9.66867041 2 6 C1.01 6 0.02 6 -1 6 C-0.67 4.02 -0.34 2.04 0 0 Z " fill="#7288E8" transform="translate(157,66)"/>
<path d="M0 0 C0 0.33 0 0.66 0 1 C-2.97 1 -5.94 1 -9 1 C-8.67 2.65 -8.34 4.3 -8 6 C-9.32 5.67 -10.64 5.34 -12 5 C-11.67 3.68 -11.34 2.36 -11 1 C-17.28441221 3.08849753 -17.28441221 3.08849753 -21.5625 7.75 C-21.706875 8.4925 -21.85125 9.235 -22 10 C-22.66 9.01 -23.32 8.02 -24 7 C-17.33476001 -1.7600297 -10.50067259 -2.10013452 0 0 Z " fill="#DEECFE" transform="translate(112,94)"/>
<path d="M0 0 C2.05078125 0.03255208 4.1015625 0.06510417 6.15234375 0.09765625 C6.15234375 0.75765625 6.15234375 1.41765625 6.15234375 2.09765625 C6.81234375 2.09765625 7.47234375 2.09765625 8.15234375 2.09765625 C8.17958525 3.51421418 8.19884842 4.9309267 8.21484375 6.34765625 C8.22644531 7.1365625 8.23804687 7.92546875 8.25 8.73828125 C8.15619681 11.00456627 7.78475438 12.92654575 7.15234375 15.09765625 C7.81234375 15.42765625 8.47234375 15.75765625 9.15234375 16.09765625 C8.16234375 16.09765625 7.17234375 16.09765625 6.15234375 16.09765625 C6.15234375 11.80765625 6.15234375 7.51765625 6.15234375 3.09765625 C1.86234375 3.09765625 -2.42765625 3.09765625 -6.84765625 3.09765625 C-7.17765625 2.43765625 -7.50765625 1.77765625 -7.84765625 1.09765625 C-6.64109375 1.12859375 -6.64109375 1.12859375 -5.41015625 1.16015625 C-2.58661606 1.09128942 -2.56529606 0.13558647 0 0 Z " fill="#658CF4" transform="translate(113.84765625,63.90234375)"/>
<path d="M0 0 C0.33 0 0.66 0 1 0 C1.33 2.31 1.66 4.62 2 7 C5.74429117 8.24809706 9.08164423 8.47544903 13 8 C14.92005135 6.74882038 14.92005135 6.74882038 16 5 C16.66 4.34 17.32 3.68 18 3 C18.33 3.99 18.66 4.98 19 6 C16.91449286 8.69097695 15.26444827 10.72333049 11.83984375 11.47265625 C7.81800018 11.6270843 5.52422357 11.30579709 2 9.25 C0.00846752 7.00952596 -0.8091531 5.95812693 -1 3 C-0.67 2.01 -0.34 1.02 0 0 Z " fill="#DEEFFE" transform="translate(99,80)"/>
<path d="M0 0 C5.61 0 11.22 0 17 0 C17 2.64 17 5.28 17 8 C11.39 8 5.78 8 0 8 C0 5.36 0 2.72 0 0 Z M1 1 C1 2.65 1 4.3 1 6 C2.08552366 7.31262571 2.08552366 7.31262571 4.72265625 7.09765625 C5.82480469 7.08605469 6.92695312 7.07445313 8.0625 7.0625 C9.16722656 7.05347656 10.27195312 7.04445313 11.41015625 7.03515625 C12.26480469 7.02355469 13.11945313 7.01195313 14 7 C15.10836423 5.11683841 15.10836423 5.11683841 16 3 C15.67 2.34 15.34 1.68 15 1 C10.38 1 5.76 1 1 1 Z " fill="#6C86D6" transform="translate(100,70)"/>
<path d="M0 0 C0.99 0.66 1.98 1.32 3 2 C1.68 2.33 0.36 2.66 -1 3 C-1 10.59 -1 18.18 -1 26 C-2.65 26.33 -4.3 26.66 -6 27 C-5.34 26.67 -4.68 26.34 -4 26 C-4.33 24.35 -4.66 22.7 -5 21 C-4.01 20.67 -3.02 20.34 -2 20 C-2 13.73 -2 7.46 -2 1 C-1.34 0.67 -0.68 0.34 0 0 Z " fill="#6767D1" transform="translate(97,110)"/>
<path d="M0 0 C-1.0625 1.9375 -1.0625 1.9375 -3 4 C-6.87641726 4.89988258 -9.20519658 5.26493447 -13 4 C-13 3.01 -13 2.02 -13 1 C-8.20862412 -0.6290678 -4.94367454 -1.20577428 0 0 Z " fill="#7052E1" transform="translate(133,161)"/>
<path d="M0 0 C0.66 0.33 1.32 0.66 2 1 C1.67 4.63 1.34 8.26 1 12 C0.01 12 -0.98 12 -2 12 C-2.33 13.98 -2.66 15.96 -3 18 C-3.33 18 -3.66 18 -4 18 C-4.59244521 11.33499135 -2.48322845 6.13047025 0 0 Z " fill="#6B77D9" transform="translate(51,75)"/>
<path d="M0 0 C0.33 0 0.66 0 1 0 C1.02505615 0.86278564 1.0501123 1.72557129 1.07592773 2.61450195 C1.17111385 5.81823769 1.27034444 9.02181537 1.37231445 12.2253418 C1.41560218 13.61135983 1.45728164 14.99742906 1.49731445 16.38354492 C1.55516584 18.37691798 1.61929776 20.37010565 1.68359375 22.36328125 C1.72025146 23.56251221 1.75690918 24.76174316 1.79467773 25.99731445 C1.87733025 29.04994349 1.87733025 29.04994349 3 32 C2.01 32 1.02 32 0 32 C0 21.44 0 10.88 0 0 Z " fill="#7A79C3" transform="translate(89,104)"/>
<path d="M0 0 C0.66 0.33 1.32 0.66 2 1 C1.34 1.66 0.68 2.32 0 3 C0.3185177 5.10820797 0.3185177 5.10820797 1 7 C-1.97 6.505 -1.97 6.505 -5 6 C-5 6.66 -5 7.32 -5 8 C-5.99 8.33 -6.98 8.66 -8 9 C-7.6875 6.625 -7.6875 6.625 -7 4 C-6.01 3.34 -5.02 2.68 -4 2 C-3.34 2.33 -2.68 2.66 -2 3 C-2 2.34 -2 1.68 -2 1 C-1.34 0.67 -0.68 0.34 0 0 Z " fill="#6692F7" transform="translate(70,56)"/>
<path d="M0 0 C0 0.66 0 1.32 0 2 C-2.31 2 -4.62 2 -7 2 C-6.67 2.66 -6.34 3.32 -6 4 C-5.92907158 6.2072923 -5.91584975 8.41667452 -5.9375 10.625 C-5.94652344 11.81351563 -5.95554687 13.00203125 -5.96484375 14.2265625 C-5.97644531 15.14179687 -5.98804687 16.05703125 -6 17 C-6.33 17 -6.66 17 -7 17 C-7.33 11.39 -7.66 5.78 -8 0 C-5.13822943 -1.43088528 -3.06624227 -0.59991697 0 0 Z " fill="#7396F1" transform="translate(104,65)"/>
<path d="M0 0 C2.86697492 1.28519565 4.97607712 2.57129254 7 5 C7 5.66 7 6.32 7 7 C7.66 7.66 8.32 8.32 9 9 C7.1875 9.625 7.1875 9.625 5 10 C4.01 9.34 3.02 8.68 2 8 C2 6.68 2 5.36 2 4 C1.34 4 0.68 4 0 4 C0 2.68 0 1.36 0 0 Z " fill="#7162E6" transform="translate(84,134)"/>
<path d="M0 0 C1.32 0 2.64 0 4 0 C4.33 1.65 4.66 3.3 5 5 C4.34 5 3.68 5 3 5 C2.67 5.99 2.34 6.98 2 8 C1.01 7.67 0.02 7.34 -1 7 C-1.04254356 5.00045254 -1.04080783 2.99958364 -1 1 C-0.67 0.67 -0.34 0.34 0 0 Z " fill="#6F61EB" transform="translate(131,136)"/>
<path d="M0 0 C0.99 0.33 1.98 0.66 3 1 C2.360625 1.763125 1.72125 2.52625 1.0625 3.3125 C-1.14232781 5.88246713 -1.14232781 5.88246713 -2 9 C-2.66 9 -3.32 9 -4 9 C-4 8.34 -4 7.68 -4 7 C-4.66 7 -5.32 7 -6 7 C-5.67 5.68 -5.34 4.36 -5 3 C-3.35 2.67 -1.7 2.34 0 2 C0 1.34 0 0.68 0 0 Z " fill="#7583E4" transform="translate(90,95)"/>
<path d="M0 0 C6.52307692 1.47692308 6.52307692 1.47692308 8.9375 4.125 C9.288125 4.74375 9.63875 5.3625 10 6 C9.67 6.66 9.34 7.32 9 8 C8.34 7.34 7.68 6.68 7 6 C4.68351201 4.96157435 2.35096976 3.9578025 0 3 C0 2.01 0 1.02 0 0 Z " fill="#717FD7" transform="translate(117,95)"/>
<path d="M0 0 C2.97 0.33 5.94 0.66 9 1 C9.33 1.99 9.66 2.98 10 4 C6.04 4 2.08 4 -2 4 C-1.34 2.68 -0.68 1.36 0 0 Z " fill="#6094F7" transform="translate(76,52)"/>
<path d="M0 0 C0.33 0 0.66 0 1 0 C1.125 7.75 1.125 7.75 0 10 C-3.71599191 10.20086443 -4.77208445 10.1519437 -8 8 C-7.67 6.35 -7.34 4.7 -7 3 C-6.34 3 -5.68 3 -5 3 C-4.67 4.65 -4.34 6.3 -4 8 C-3.01 8.33 -2.02 8.66 -1 9 C-0.67 6.03 -0.34 3.06 0 0 Z " fill="#6E77CF" transform="translate(106,103)"/>
<path d="M0 0 C3.3 0.33 6.6 0.66 10 1 C10 1.33 10 1.66 10 2 C7.03 2 4.06 2 1 2 C1.33 3.65 1.66 5.3 2 7 C0.68 6.67 -0.64 6.34 -2 6 C-1.34 4.02 -0.68 2.04 0 0 Z " fill="#EBF4FE" transform="translate(102,93)"/>
<path d="M0 0 C0.5534764 2.07553648 1 3.84365964 1 6 C-2.96 6 -6.92 6 -11 6 C-11 5.67 -11 5.34 -11 5 C-10.37351562 4.80664062 -9.74703125 4.61328125 -9.1015625 4.4140625 C-8.28429687 4.15367188 -7.46703125 3.89328125 -6.625 3.625 C-5.81289062 3.36976562 -5.00078125 3.11453125 -4.1640625 2.8515625 C-1.83540815 2.10145717 -1.83540815 2.10145717 0 0 Z " fill="#717DCB" transform="translate(117,87)"/>
<path d="M0 0 C0.144375 0.598125 0.28875 1.19625 0.4375 1.8125 C0.8872439 3.56150404 1.42892341 5.28677023 2 7 C1.67 7.99 1.34 8.98 1 10 C0.01 9.67 -0.98 9.34 -2 9 C-2.25 3.375 -2.25 3.375 0 0 Z " fill="#705EE8" transform="translate(102,139)"/>
<path d="M0 0 C0.66 0.99 1.32 1.98 2 3 C-0.0625 5.5625 -0.0625 5.5625 -3 8 C-6.8125 7.8125 -6.8125 7.8125 -10 7 C-10 6.67 -10 6.34 -10 6 C-8.72125 5.7525 -7.4425 5.505 -6.125 5.25 C-2.73252682 4.48009414 -2.73252682 4.48009414 -0.5 1.875 C-0.335 1.25625 -0.17 0.6375 0 0 Z " fill="#CDDFFD" transform="translate(116,83)"/>
<path d="M0 0 C5.93002267 -0.37851209 10.47239641 0.89424625 16 3 C12.23331402 4.3805087 9.55210827 3.59568159 5.75 2.5625 C4.13351563 2.13130859 4.13351563 2.13130859 2.484375 1.69140625 C1.25460938 1.34916016 1.25460938 1.34916016 0 1 C0 0.67 0 0.34 0 0 Z " fill="#7E63CD" transform="translate(79,164)"/>
<path d="M0 0 C0.66 0 1.32 0 2 0 C2 0.99 2 1.98 2 3 C2.99 3.33 3.98 3.66 5 4 C4.67 5.32 4.34 6.64 4 8 C4.99 8.33 5.98 8.66 7 9 C5.68 9 4.36 9 3 9 C0 3.375 0 3.375 0 0 Z " fill="#7B67D6" transform="translate(51,136)"/>
<path d="M0 0 C-0.66 1.98 -1.32 3.96 -2 6 C-2.33 5.34 -2.66 4.68 -3 4 C-5.02463255 3.34786708 -5.02463255 3.34786708 -7 3 C-7 2.01 -7 1.02 -7 0 C-2.25 -1.125 -2.25 -1.125 0 0 Z " fill="#705EE7" transform="translate(129,141)"/>
<path d="M0 0 C0.33 0 0.66 0 1 0 C1.125 7.75 1.125 7.75 0 10 C-1.9375 9.6875 -1.9375 9.6875 -4 9 C-4.33 8.01 -4.66 7.02 -5 6 C-4.34 5.67 -3.68 5.34 -3 5 C-2.01 5.33 -1.02 5.66 0 6 C0 4.02 0 2.04 0 0 Z " fill="#DBDFF8" transform="translate(105,102)"/>
<path d="M0 0 C2.97 0.33 5.94 0.66 9 1 C9.33 2.32 9.66 3.64 10 5 C9.38511719 4.855625 8.77023438 4.71125 8.13671875 4.5625 C7.32847656 4.376875 6.52023438 4.19125 5.6875 4 C4.88699219 3.814375 4.08648437 3.62875 3.26171875 3.4375 C0.89304062 2.90504177 0.89304062 2.90504177 -2 3 C-1.34 2.01 -0.68 1.02 0 0 Z " fill="#6C83F8" transform="translate(118,87)"/>
<path d="M0 0 C0.99 0 1.98 0 3 0 C3 2.31 3 4.62 3 7 C1.02 5.68 -0.96 4.36 -3 3 C-2.67 2.34 -2.34 1.68 -2 1 C-1.34 1.33 -0.68 1.66 0 2 C0 1.34 0 0.68 0 0 Z " fill="#7059E2" transform="translate(68,152)"/>
<path d="M0 0 C0.99 0 1.98 0 3 0 C2.45276317 3.37462715 1.9451 5.08235 0 8 C-1.125 5.6875 -1.125 5.6875 -2 3 C-1.34 2.01 -0.68 1.02 0 0 Z " fill="#6581F1" transform="translate(162,83)"/>
<path d="M0 0 C3 0 3 0 5 1 C4.67 2.32 4.34 3.64 4 5 C2.35 5 0.7 5 -1 5 C-0.67 3.35 -0.34 1.7 0 0 Z " fill="#DBDEF5" transform="translate(94,105)"/>
<path d="M0 0 C0.99 0 1.98 0 3 0 C3 3 3 3 1.6875 4.38671875 C0.125 5.59114583 -1.4375 6.79557292 -3 8 C-3 4.38462395 -2.10770759 2.88834003 0 0 Z " fill="#7587E1" transform="translate(56,66)"/>
<path d="M0 0 C0.66 0.33 1.32 0.66 2 1 C1.54625 1.598125 1.0925 2.19625 0.625 2.8125 C-0.63295913 4.50590652 -1.82984724 6.24477086 -3 8 C-5.125 8.6875 -5.125 8.6875 -7 9 C-5.44499019 5.18315774 -2.96404505 2.80804268 0 0 Z " fill="#6573C1" transform="translate(64,57)"/>
<path d="M0 0 C0 0.99 0 1.98 0 3 C-1.98 3.99 -1.98 3.99 -4 5 C-4 4.34 -4 3.68 -4 3 C-5.32 2.67 -6.64 2.34 -8 2 C-5.09399739 0.74335022 -3.20395416 0 0 0 Z " fill="#7A88D6" transform="translate(101,95)"/>
<path d="M0 0 C2.475 0.495 2.475 0.495 5 1 C5 1.66 5 2.32 5 3 C4.34 3 3.68 3 3 3 C2.67 3.99 2.34 4.98 2 6 C0 3 0 3 0 0 Z " fill="#6F5EE6" transform="translate(153,144)"/>
<path d="M0 0 C0.99 0 1.98 0 3 0 C2.67 3.3 2.34 6.6 2 10 C0.0044484 6.00889681 -0.19546065 4.30013434 0 0 Z " fill="#D4E4FA" transform="translate(98,68)"/>
<path d="M0 0 C0.80824219 0.19464844 1.61648437 0.38929687 2.44921875 0.58984375 C3.06410156 0.74582031 3.67898437 0.90179688 4.3125 1.0625 C4.3125 1.3925 4.3125 1.7225 4.3125 2.0625 C2.8754191 2.11672947 1.43774538 2.15539723 0 2.1875 C-0.80050781 2.21070313 -1.60101563 2.23390625 -2.42578125 2.2578125 C-4.6875 2.0625 -4.6875 2.0625 -7.6875 0.0625 C-4.39053895 -1.03648702 -3.28255097 -0.80874444 0 0 Z " fill="#6F8FEA" transform="translate(127.6875,46.9375)"/>
<path d="M0 0 C0.66 0 1.32 0 2 0 C2 2.31 2 4.62 2 7 C0.68 6.67 -0.64 6.34 -2 6 C-1.34 6 -0.68 6 0 6 C-0.2784375 4.7934375 -0.2784375 4.7934375 -0.5625 3.5625 C-0.706875 2.716875 -0.85125 1.87125 -1 1 C-0.67 0.67 -0.34 0.34 0 0 Z " fill="#6C64DE" transform="translate(93,130)"/>
<path d="M0 0 C1.98 0.495 1.98 0.495 4 1 C3.67 1.99 3.34 2.98 3 4 C2.01 4.33 1.02 4.66 0 5 C-0.33 4.01 -0.66 3.02 -1 2 C-0.67 1.34 -0.34 0.68 0 0 Z " fill="#6697FA" transform="translate(133,51)"/>
</svg>
